HIERARCHY
ROOT Hips
{
	OFFSET 0.000000 0.000000 0.000000
	CHANNELS 6 Xposition Yposition Zposition Xrotation Yrotation Zrotation
	JOINT LeftUpLeg_virtual
	{
		OFFSET 0.000000 0.000000 0.000000
		CHANNELS 3 Xrotation Yrotation Zrotation
		JOINT LeftUpLeg
		{
			OFFSET 10.205400 -3.823500 0.155100
			CHANNELS 3 Xrotation Yrotation Zrotation
			JOINT LeftLeg
			{
				OFFSET 0.708757 -12.982077 0.567790
				CHANNELS 3 Xrotation Yrotation Zrotation
				JOINT LeftFoot
				{
					OFFSET -0.708756 -10.717838 -2.184338
					CHANNELS 3 Xrotation Yrotation Zrotation
					JOINT LeftToeBase
					{
						OFFSET 0.108149 -7.191104 7.560241
						CHANNELS 3 Xrotation Yrotation Zrotation
						JOINT LeftToe_End
						{
							OFFSET 0.070230 0.081724 4.490308
							CHANNELS 3 Xrotation Yrotation Zrotation
							End Site
							{
								OFFSET 0 0 0
							}
						}
					}
				}
			}
		}
	}
	JOINT RightUpLeg_virtual
	{
		OFFSET 0.000000 0.000000 0.000000
		CHANNELS 3 Xrotation Yrotation Zrotation
		JOINT RightUpLeg
		{
			OFFSET -10.205400 -3.823500 0.005500
			CHANNELS 3 Xrotation Yrotation Zrotation
			JOINT RightLeg
			{
				OFFSET -0.708756 -12.982134 0.610632
				CHANNELS 3 Xrotation Yrotation Zrotation
				JOINT RightFoot
				{
					OFFSET 0.708754 -10.717769 -1.945823
					CHANNELS 3 Xrotation Yrotation Zrotation
					JOINT RightToeBase
					{
						OFFSET -0.108140 -7.191069 7.372968
						CHANNELS 3 Xrotation Yrotation Zrotation
						JOINT RightToe_End
						{
							OFFSET -0.070227 0.081735 4.479403
							CHANNELS 3 Xrotation Yrotation Zrotation
							End Site
							{
								OFFSET 0 0 0
							}
						}
					}
				}
			}
		}
	}
	JOINT Spine_virtual
	{
		OFFSET 0.000000 0.000000 0.000000
		CHANNELS 3 Xrotation Yrotation Zrotation
		JOINT Spine
		{
			OFFSET 0.000000 6.876099 0.125700
			CHANNELS 3 Xrotation Yrotation Zrotation
			JOINT Spine1
			{
				OFFSET 0.000000 5.730043 0.104720
				CHANNELS 3 Xrotation Yrotation Zrotation
				JOINT Spine1_split
				{
					OFFSET 0.000000 5.730043 0.104720
					CHANNELS 3 Xrotation Yrotation Zrotation
					JOINT Spine2
					{
						OFFSET 0.000000 5.730043 0.104720
						CHANNELS 3 Xrotation Yrotation Zrotation
						JOINT Neck_virtual
						{
							OFFSET 0.000000 0.000000 0.000000
							CHANNELS 3 Xrotation Yrotation Zrotation
							JOINT Neck
							{
								OFFSET 0.000000 10.314075 0.188496
								CHANNELS 3 Xrotation Yrotation Zrotation
								JOINT Head
								{
									OFFSET 0.000000 7.643700 -2.377400
									CHANNELS 3 Xrotation Yrotation Zrotation
									JOINT HeadTop_End
									{
										OFFSET 0.000000 43.788605 -13.619600
										CHANNELS 3 Xrotation Yrotation Zrotation
										End Site
										{
											OFFSET 0 0 0
										}
									}
								}
							}
						}
						JOINT LeftShoulder_virtual
						{
							OFFSET 0.000000 0.000000 0.000000
							CHANNELS 3 Xrotation Yrotation Zrotation
							JOINT LeftShoulder
							{
								OFFSET 2.196100 4.412489 0.087492
								CHANNELS 3 Xrotation Yrotation Zrotation
								JOINT LeftShoulder_split
								{
									OFFSET 2.196100 4.412489 0.087492
									CHANNELS 3 Xrotation Yrotation Zrotation
									JOINT LeftArm
									{
										OFFSET 8.771219 -2.981674 -0.026999
										CHANNELS 3 Xrotation Yrotation Zrotation
										JOINT LeftForeArm
										{
											OFFSET 8.512804 0.000000 -0.000000
											CHANNELS 3 Xrotation Yrotation Zrotation
											JOINT LeftHand
											{
												OFFSET 18.484802 0.000000 -0.000000
												CHANNELS 3 Xrotation Yrotation Zrotation
												End Site
												{
													OFFSET 0 0 0
												}
											}
										}
									}
								}
							}
						}
						JOINT RightShoulder_virtual
						{
							OFFSET 0.000000 0.000000 0.000000
							CHANNELS 3 Xrotation Yrotation Zrotation
							JOINT RightShoulder
							{
								OFFSET -2.196100 4.412496 0.070690
								CHANNELS 3 Xrotation Yrotation Zrotation
								JOINT RightShoulder_split
								{
									OFFSET -2.196100 4.412496 0.070690
									CHANNELS 3 Xrotation Yrotation Zrotation
									JOINT RightArm
									{
										OFFSET -8.771282 -2.981682 -0.094208
										CHANNELS 3 Xrotation Yrotation Zrotation
										JOINT RightForeArm
										{
											OFFSET -8.494598 0.000000 0.000000
											CHANNELS 3 Xrotation Yrotation Zrotation
											JOINT RightHand
											{
												OFFSET -18.483803 0.000000 0.000001
												CHANNELS 3 Xrotation Yrotation Zrotation
												End Site
												{
													OFFSET 0 0 0
												}
											}
										}
									}
								}
							}
						}
					}
				}
			}
		}
	}
}
MOTION
Frames: 4
Frame Time: 0.03333333
1.780859 17.831383 -1.199028 0.000000 0.000000 0.000000 -179.691308 -5.114938 171.019358 -70.774734 -38.443057 38.065758 127.349191 -24.457465 -2.932933 -41.511072 8.357679 -16.126819 -1.232690 1.140318 1.450974 0.000000 0.000000 0.000000 -179.691308 -5.114938 171.019358 -37.168561 10.673863 -40.135243 111.954266 24.426529 3.317451 -55.755210 -14.561502 20.214426 -9.248426 -3.083427 -0.190032 0.000000 0.000000 0.000000 -179.691308 -5.114938 171.019358 4.004125 3.126305 -2.196978 8.159353 6.853756 -4.619807 0.000000 0.000000 0.000000 0.000000 0.000000 0.000000 8.159347 6.853759 -4.619810 -3.848640 28.396756 6.926096 5.964073 35.652932 -22.323005 0.000000 0.000000 0.000000 8.159347 6.853759 -4.619810 0.999355 -15.480026 -11.858153 0.000000 0.000000 0.000000 2.922996 -1.021124 -32.113418 39.900012 -32.869975 -2.079683 0.000000 0.000000 0.000000 8.159347 6.853759 -4.619810 3.296028 -18.277610 12.218436 0.000000 0.000000 0.000000 12.766695 -13.255677 60.143401 30.211894 39.427001 -4.032025 0.000000 0.000000 0.000000 
1.779096 17.831085 -1.202206 0.000000 0.000000 0.000000 -179.750908 -5.151676 170.984251 -70.962981 -38.512530 37.989755 127.353043 -24.447759 -2.928807 -41.421771 8.332071 -16.131314 -1.230522 1.138971 1.448427 0.000000 0.000000 0.000000 -179.750908 -5.151676 170.984251 -37.155314 10.622783 -40.113998 111.925504 24.393372 3.323089 -55.790484 -14.577799 20.216552 -9.247311 -3.096599 -0.190644 0.000000 0.000000 0.000000 -179.750908 -5.151676 170.984251 3.982164 3.123869 -2.192745 8.115208 6.854067 -4.611593 0.000000 0.000000 0.000000 0.000000 0.000000 0.000000 8.115214 6.854062 -4.611584 -3.893996 28.384584 6.949294 6.058531 35.625946 -22.329912 0.000000 0.000000 0.000000 8.115214 6.854062 -4.611584 0.983004 -15.541324 -11.895347 0.000000 0.000000 0.000000 2.965881 -0.975589 -32.060908 39.955586 -32.910601 -2.104592 0.000000 0.000000 0.000000 8.115214 6.854062 -4.611584 3.299767 -18.344981 12.110439 0.000000 0.000000 0.000000 12.768937 -13.198102 60.241408 30.218256 39.297620 -4.016856 0.000000 0.000000 0.000000 
1.777152 17.829575 -1.206593 0.000000 0.000000 0.000000 -179.801930 -5.156007 170.957190 -71.066506 -38.538635 38.004463 127.370228 -24.471880 -2.930371 -41.393036 8.300948 -16.100491 -1.228297 1.137897 1.445675 0.000000 0.000000 0.000000 -179.801930 -5.156007 170.957190 -37.179681 10.591050 -40.083409 111.919473 24.371402 3.326731 -55.822900 -14.581516 20.207362 -9.246327 -3.090844 -0.187968 0.000000 0.000000 0.000000 -179.801930 -5.156007 170.957190 3.962094 3.122998 -2.193295 8.075131 6.853918 -4.612898 0.000000 0.000000 0.000000 0.000000 0.000000 0.000000 8.075141 6.853913 -4.612896 -3.925089 28.376658 6.958243 6.143545 35.639572 -22.329736 0.000000 0.000000 0.000000 8.075141 6.853913 -4.612896 0.985472 -15.558940 -11.899343 0.000000 0.000000 0.000000 3.003088 -0.913857 -31.997066 40.016548 -32.998228 -2.121988 0.000000 0.000000 0.000000 8.075141 6.853913 -4.612896 3.306600 -18.371401 12.069604 0.000000 0.000000 0.000000 12.769778 -13.150456 60.289219 30.289936 39.220285 -4.043916 0.000000 0.000000 0.000000 
1.776040 17.827206 -1.210709 0.000000 0.000000 0.000000 -179.840397 -5.163608 170.950209 -71.139815 -38.545609 38.000181 127.382509 -24.481469 -2.931463 -41.378823 8.286214 -16.084187 -1.225780 1.137060 1.442707 0.000000 0.000000 0.000000 -179.840397 -5.163608 170.950209 -37.202582 10.554266 -40.114145 111.924753 24.373779 3.328543 -55.851311 -14.563857 20.176826 -9.245446 -3.068066 -0.182280 0.000000 0.000000 0.000000 -179.840397 -5.163608 170.950209 3.949226 3.121782 -2.202119 8.049899 6.852352 -4.630619 0.000000 0.000000 0.000000 0.000000 0.000000 0.000000 8.049906 6.852357 -4.630624 -3.956254 28.371817 6.989455 6.229249 35.651364 -22.352723 0.000000 0.000000 0.000000 8.049906 6.852357 -4.630624 0.994501 -15.576608 -11.870973 0.000000 0.000000 0.000000 3.023601 -0.847042 -31.927228 40.033040 -33.111640 -2.139826 0.000000 0.000000 0.000000 8.049906 6.852357 -4.630624 3.329649 -18.400656 12.086203 0.000000 0.000000 0.000000 12.758462 -13.093554 60.290005 30.367810 39.179597 -4.060845 0.000000 0.000000 0.000000 
